HIERARCHY
ROOT pelvis
{
  OFFSET 0 100 0
  CHANNELS 6 Xposition Yposition Zposition Zrotation Xrotation Yrotation
  JOINT pelvis_right_femur
  {
    OFFSET -10.78128 -3.44521 -0.5502486
    CHANNELS 3 Zrotation Xrotation Yrotation
    JOINT right_femur_tibia
    {
      OFFSET -0.8047443 -44.0398 -0.1307829
      CHANNELS 3 Zrotation Xrotation Yrotation
      JOINT right_tibia_foot
      {
        OFFSET 3.006224 -47.83518 -5
        CHANNELS 3 Zrotation Xrotation Yrotation
        End Site
        {
          OFFSET 0 -5 15
        }
      }
    }
  }
  JOINT pelvis_left_femur
  {
    OFFSET 10.78128 -3.44521 -0.5502486
    CHANNELS 3 Zrotation Xrotation Yrotation
    JOINT left_femur_tibia
    {
      OFFSET 0.8047443 -44.0398 -0.1307829
      CHANNELS 3 Zrotation Xrotation Yrotation
      JOINT left_tibia_foot
      {
        OFFSET -4.370144 -48.10324 -4.275266
        CHANNELS 3 Zrotation Xrotation Yrotation
        End Site
        {
          OFFSET 0 -5 15
        }
      }
    }
  }
  JOINT pelvis_spine1
  {
    OFFSET 0 6.468898 -3.129235
    CHANNELS 3 Zrotation Xrotation Yrotation
    JOINT spine1
    {
      OFFSET 0 23.15396 4.99043
      CHANNELS 3 Zrotation Xrotation Yrotation
      JOINT spine2
      {
        OFFSET 0 20.79997 -5.064912
        CHANNELS 3 Zrotation Xrotation Yrotation
        JOINT neck
        {
          OFFSET 0 14.38658 9.616178
          CHANNELS 3 Zrotation Xrotation Yrotation
          End Site
          {
            OFFSET 0 20 0
          }
        }
      }
      JOINT right_manubrium
      {
        OFFSET -5.722621 16.35077 3.967754
        CHANNELS 3 Zrotation Xrotation Yrotation
        JOINT right_clavicle
        {
          OFFSET -13.16364 1.694482 -4.693211
          CHANNELS 3 Zrotation Xrotation Yrotation
          JOINT right_humerus
          {
            OFFSET -28.5034 -0.3100689 -2.792744
            CHANNELS 3 Zrotation Xrotation Yrotation
            JOINT right_radius
            {
              OFFSET -25.15693 0.02248979 -1.271978
              CHANNELS 3 Zrotation Xrotation Yrotation
              End Site
              {
                OFFSET -15 0 0
              }
            }
          }
        }
      }
      JOINT left_manubrium
      {
        OFFSET 5.722621 16.35077 3.967754
        CHANNELS 3 Zrotation Xrotation Yrotation
        JOINT left_clavicle
        {
          OFFSET 13.16364 1.694482 -4.693211
          CHANNELS 3 Zrotation Xrotation Yrotation
          JOINT left_humerus
          {
            OFFSET 29.39168 -1.063119 -2.237045
            CHANNELS 3 Zrotation Xrotation Yrotation
            JOINT left_radius
            {
              OFFSET 24.59957 -0.9528479 0.9047498
              CHANNELS 3 Zrotation Xrotation Yrotation
              End Site
              {
                OFFSET 15 -0 -0
              }
            }
          }
        }
      }
    }
  }
}
MOTION
Frames: 18
Frame Time: 0.0416666666667
0 103.5113 0 1.956158 -1.34617 -0.1591678 2.107576 -10.78004 9.239126 -7.717974e-06 34.84104 5.560789e-06 -5.847783 -18.51465 -3.834244 -7.732949 9.381727 -23.65995 -4.28701e-08 5.823153 -1.087106e-06 8.956102 -16.48695 28.35499 -4.792787 -4.914936 5.175264 2.287702 9.189487 -7.708237 1.299622 22.64432 6.485634 3.196453 -23.415 8.63855 6.37469 -20.00408 11.49052 85.49942 36.1587 -19.2383 -2.268077e-07 8.9604e-07 16.21855 -6.980972 7.974214 4.13484 5.477367 -19.69355 -1.213516 -94.70132 29.73351 23.10172 -1.215715e-06 -2.274918e-07 -16.41343 4.042412 18.42653 8.892643
0.2749507 103.6469 1.423092 1.62505 -1.316714 -0.1821803 2.523048 -13.34846 9.164563 -5.977876e-06 37.27483 4.369556e-06 -5.716265 -17.47286 -4.007563 -7.548723 10.47361 -23.49225 2.175838e-07 5.658388 -5.406631e-07 8.338647 -17.17361 27.23852 -4.519501 -4.401793 4.870823 2.324051 9.213205 -7.872626 1.243587 22.51711 6.648287 3.11395 -23.64977 8.86413 6.411507 -19.90572 11.50937 86.05822 35.99789 -19.6365 -1.974974e-07 5.965573e-07 16.23171 -6.934403 8.287496 4.184914 5.337559 -19.7111 -1.44503 -94.59247 29.75261 23.07644 -8.372493e-07 -1.645065e-07 -16.80214 3.986651 18.05225 9.237791
0.5674186 103.7767 2.928434 1.238703 -1.10133 -0.05259589 3.065224 -16.27351 8.904707 -4.273959e-06 38.00986 3.142383e-06 -5.692004 -16.18831 -4.001437 -7.286615 11.45059 -23.16744 4.4847e-07 5.553616 -2.116739e-07 7.531713 -17.98489 25.98563 -4.161216 -3.796294 4.544782 2.404106 9.205384 -8.023153 1.167037 22.34599 6.871191 3.108866 -23.99484 9.075693 6.380561 -19.76132 11.52653 86.54417 35.84515 -20.04729 -1.345255e-07 3.949499e-07 16.04392 -7.006288 8.55712 4.324892 5.344467 -19.83716 -1.67429 -94.35602 29.65628 22.82601 -5.405973e-07 -8.85985e-08 -17.47249 4.062663 17.63979 9.412989
0.8642586 103.8381 4.583976 0.8545094 -0.6697186 0.1835994 3.650789 -19.28162 8.493209 -2.721476e-06 36.96207 2.009489e-06 -5.724227 -14.62338 -3.773132 -7.013637 12.32286 -22.74206 6.269654e-07 5.560079 -1.425238e-07 6.643113 -18.86411 24.74789 -3.77339 -3.217047 4.243978 2.518855 9.169281 -8.150057 1.078814 22.12495 7.152675 3.211271 -24.44529 9.257504 6.296215 -19.56417 11.53529 86.91267 35.7246 -20.49804 -6.966913e-08 2.623486e-07 15.63092 -7.215168 8.741715 4.528428 5.519421 -20.07585 -1.865026 -93.99518 29.44687 22.34567 -3.272224e-07 -9.276382e-09 -18.42545 4.258278 17.22296 9.395212
1.150079 103.7486 6.455309 0.5096938 -0.07051879 0.4672047 4.249656 -22.24549 7.993569 -1.322462e-06 34.02892 1.010795e-06 -5.710098 -12.94918 -3.373344 -6.749304 13.0648 -22.22667 7.864086e-07 5.674441 -3.067646e-07 5.73546 -19.82168 23.64683 -3.386496 -2.705567 4.013682 2.656447 9.112888 -8.249473 1.00057 21.87409 7.471561 3.409444 -24.94523 9.414591 6.148118 -19.33421 11.5365 87.2105 35.5773 -21.01846 -2.766638e-08 1.524786e-07 15.07025 -7.592752 8.862225 4.767863 5.881083 -20.4341 -2.007162 -93.57921 29.13266 21.62672 -1.696095e-07 7.127308e-08 -19.69897 4.518678 16.80254 9.221108
1.413428 103.4809 8.570762 0.1980264 0.6515799 0.7490468 4.816867 -24.89232 7.470283 -3.432726e-07 29.96166 3.581237e-07 -5.734841 -11.23187 -2.844859 -6.508946 13.62993 -21.68662 8.891377e-07 6.002463 -6.788408e-07 4.84966 -20.67224 22.67106 -3.017145 -2.28915 3.8407 2.811084 9.039614 -8.318896 0.9216404 21.57986 7.799542 3.675444 -25.47086 9.523941 5.993668 -19.07169 11.52953 87.29175 35.49767 -21.49902 8.353056e-09 1.076137e-07 14.38209 -8.00857 8.9055 5.017075 6.325273 -20.82265 -2.086347 -93.06551 28.7646 20.81593 -9.727956e-08 1.449599e-07 -21.03125 4.810073 16.39914 8.947674
1.645347 103.034 10.99754 -0.1061888 1.43252 1.005406 5.325746 -27.17888 6.917227 3.480363e-07 25.36933 -6.481981e-08 -5.802659 -9.652087 -2.309894 -6.253323 14.16397 -21.07987 8.417799e-07 6.549937 -1.129674e-06 3.864265 -21.32566 21.63562 -2.653389 -1.973729 3.686285 2.969459 8.915403 -8.383415 0.8546949 21.28696 8.079663 3.928748 -25.96176 9.592513 5.81321 -18.75984 11.48477 87.3428 35.44877 -21.98258 3.961324e-08 1.015523e-07 13.6067 -8.422178 8.94303 5.258164 6.772465 -21.20327 -2.10821 -92.48528 28.37663 19.93554 -6.871644e-08 2.004839e-07 -22.37587 5.124923 16.01578 8.627622
1.84658 102.4675 13.83387 -0.4293977 2.131648 1.241007 5.757189 -28.83131 6.406831 1.001484e-06 21.40697 -4.574261e-07 -5.934213 -8.326952 -1.933212 -5.960346 14.68239 -20.40214 6.351028e-07 7.591861 -1.479348e-06 2.658885 -21.5819 20.42537 -2.282536 -1.742612 3.517462 3.104328 8.734604 -8.444809 0.818759 21.06235 8.249348 4.086821 -26.35269 9.630758 5.625446 -18.39904 11.38826 87.54854 35.41524 -22.42615 5.772702e-08 7.538961e-08 12.83122 -8.789342 9.056182 5.495535 7.085109 -21.47045 -2.084453 -92.01531 28.03269 19.17865 -1.681875e-08 2.245359e-07 -23.42279 5.390865 15.64876 8.415806
2.027211 101.9172 17.19041 -0.8106364 2.697702 1.48351 6.130147 -29.65787 5.997522 1.65608e-06 18.95815 -8.769259e-07 -6.203109 -7.269454 -1.788122 -5.611095 15.19339 -19.64804 2.219276e-07 9.456109 -1.627079e-06 1.175599 -21.18913 18.90113 -1.879107 -1.604986 3.306414 3.213209 8.511925 -8.52384 0.8006225 20.89288 8.270777 4.097893 -26.63756 9.617001 5.476889 -17.99145 11.24262 87.91116 35.45794 -22.79453 7.432361e-08 2.978505e-08 12.0778 -9.004598 9.299997 5.718077 7.126502 -21.55184 -2.028717 -91.64774 27.75714 18.72485 7.188874e-08 2.058356e-07 -23.93605 5.58571 15.29019 8.395346
2.201826 101.5466 21.08112 -1.233023 3.028448 1.760454 6.451253 -29.57173 5.748709 1.989022e-06 18.50851 -1.137035e-06 -6.660729 -6.494274 -1.871765 -5.235879 15.50049 -18.85276 -3.40293e-07 12.33627 -1.584141e-06 -0.4100763 -20.05343 17.19835 -1.458459 -1.511601 3.065311 3.293346 8.322415 -8.614655 0.7723783 20.76718 8.156425 3.968841 -26.79907 9.523794 5.435885 -17.57397 11.09981 88.26545 35.6531 -23.00012 1.327149e-07 6.138913e-08 11.3663 -9.015192 9.665586 5.917859 6.832817 -21.43546 -1.983911 -91.30647 27.5632 18.6526 1.191014e-07 1.556455e-07 -23.78497 5.695847 14.93679 8.58185
2.38514 101.4803 25.53283 -1.685444 3.101976 2.067951 6.806321 -28.57767 5.665303 2.206271e-06 19.28578 -1.362574e-06 -7.207964 -6.092492 -2.152085 -4.808961 15.39825 -17.93696 -9.887582e-07 16.48587 -1.340286e-06 -2.089122 -18.22678 15.42848 -0.9848818 -1.431031 2.864503 3.338222 8.192662 -8.688969 0.754891 20.69893 7.909683 3.716542 -26.83134 9.362711 5.439281 -17.19676 10.98138 88.6714 35.85098 -23.06617 2.09273e-07 1.144979e-07 10.78461 -8.927321 10.16262 6.089166 6.281236 -21.17772 -1.962164 -91.12746 27.38716 18.96693 1.66056e-07 8.489941e-08 -23.11764 5.712659 14.57032 8.953199
2.573544 101.7976 30.39827 -2.092832 2.858978 2.35252 7.248742 -26.74489 5.753553 1.832679e-06 20.40884 -1.207276e-06 -7.840586 -6.31289 -2.482613 -4.373609 14.44061 -16.93817 -1.598527e-06 22.26118 -1.008758e-06 -3.599623 -15.84635 13.91333 -0.4783431 -1.276074 2.805351 3.350324 8.193425 -8.693962 0.7283654 20.69965 7.584502 3.416472 -26.73232 9.116469 5.497516 -16.90961 10.96765 88.84401 36.05708 -22.9282 3.38135e-07 3.048365e-07 10.34148 -8.705299 10.65788 6.14074 5.562948 -20.86701 -1.993138 -91.02996 27.23765 19.56436 1.037289e-07 2.498455e-08 -22.17143 5.671361 14.23687 9.36968
2.748846 102.5119 35.49296 -2.315926 2.262746 2.533027 7.639857 -23.97697 5.861125 1.079668e-06 21.09436 -7.655677e-07 -8.419634 -7.210382 -2.78362 -4.009199 12.31496 -15.78998 -2.040288e-06 29.58279 -5.205018e-07 -4.789896 -13.21758 12.94438 -0.04269708 -1.032076 2.988132 3.288321 8.337653 -8.575667 0.7103444 20.86815 7.219609 3.136418 -26.45078 8.79217 5.553832 -16.71183 11.07634 88.82527 36.22217 -22.60153 4.511151e-07 5.269612e-07 10.00778 -8.607637 11.07734 6.10136 4.822523 -20.60936 -2.081998 -91.04931 27.113 20.16987 -1.139315e-08 -1.442515e-08 -21.27878 5.591181 13.95247 9.720509
2.905734 103.5416 40.59851 -2.231861 1.388664 2.559363 7.73827 -20.11711 5.759696 3.627698e-07 21.04946 -2.84628e-07 -8.776454 -8.556083 -2.845701 -3.787121 8.519736 -14.4562 -2.175037e-06 37.14681 1.506361e-07 -5.476957 -10.80467 12.7427 0.1821968 -0.6898579 3.506017 3.092311 8.635307 -8.26509 0.6853832 21.22387 6.902725 2.9665 -26.01424 8.404774 5.56613 -16.72404 11.32153 88.45323 36.3737 -21.85791 4.803019e-07 6.485409e-07 9.954627 -9.035069 11.36032 6.187374 4.199917 -20.44579 -2.227201 -91.23592 26.95251 20.75492 -9.446057e-08 -1.925127e-08 -20.60299 5.468116 13.67828 9.958857
3.035347 104.7718 45.57934 -1.869023 0.4154184 2.419682 7.527837 -15.53234 5.428009 -2.516985e-07 20.13896 1.737405e-07 -8.841973 -10.04814 -2.639937 -3.657742 3.613625 -13.03537 -2.110063e-06 43.99575 8.555194e-07 -5.739752 -8.825838 13.16262 0.1741168 -0.3457775 4.279115 2.781513 9.006102 -7.800295 0.6609452 21.69416 6.657196 2.920017 -25.46261 7.984447 5.513301 -16.88651 11.63037 87.74814 36.48552 -20.7823 4.230463e-07 6.697287e-07 10.10551 -9.99759 11.49661 6.432745 3.769153 -20.37601 -2.38735 -91.44139 26.73874 21.16022 -1.505933e-07 5.292122e-10 -20.24081 5.328671 13.40338 10.05078
3.145803 106.0027 50.32156 -1.302953 -0.4631878 2.145243 6.987371 -10.81133 4.894742 -1.056336e-06 18.54688 7.6973e-07 -8.59959 -11.51683 -2.153242 -3.576528 -1.76703 -11.7577 -1.85139e-06 48.03742 1.290863e-06 -5.543868 -7.64143 14.08533 -0.08469723 -0.05433971 5.161498 2.398094 9.3528 -7.237511 0.6247009 22.17568 6.520853 2.984931 -24.86679 7.587406 5.398223 -17.24264 11.9331 86.65162 36.56998 -19.3204 3.484667e-07 7.181493e-07 10.57239 -11.40503 11.47183 6.924968 3.600933 -20.34982 -2.515123 -91.59631 26.48602 21.41354 -2.706323e-07 3.842258e-08 -20.11313 5.182579 13.14991 10.01122
3.269528 107.0562 54.84114 -0.6548905 -1.141803 1.781998 6.209081 -6.085877 4.234905 -1.536956e-06 16.66505 1.146979e-06 -8.128514 -12.78469 -1.497817 -3.452022 -7.223093 -10.57806 -1.434568e-06 48.90723 1.574936e-06 -5.038721 -7.094116 15.22775 -0.5186898 0.127342 6.050557 1.978563 9.626567 -6.651303 0.5756939 22.57581 6.445355 3.091961 -24.28141 7.214106 5.208781 -17.7922 12.17131 85.28659 36.61865 -17.50937 2.309479e-07 6.742695e-07 11.38728 -13.16876 11.39196 7.713356 3.615298 -20.3048 -2.586071 -91.70728 26.13859 21.6922 -3.367732e-07 7.439794e-08 -19.98982 5.019603 12.88035 9.933335
3.454866 107.758 59.31326 -0.05957601 -1.595396 1.37585 5.334306 -1.65593 3.580681 -1.254257e-06 14.59808 1.009565e-06 -7.389521 -13.97711 -0.934448 -3.146387 -12.12943 -9.430173 -1.026392e-06 46.35871 1.870422e-06 -4.504121 -7.078893 16.30943 -1.002228 0.1716547 6.833716 1.562496 9.747381 -6.118146 0.5680921 22.86181 6.337881 3.118917 -23.67784 6.917829 4.872431 -18.52064 12.26324 84.05374 36.43305 -15.52602 5.996459e-08 4.359401e-07 12.6692 -15.17592 11.41281 8.784632 3.770695 -20.17674 -2.574974 -91.95894 25.67295 22.10922 -2.354113e-07 8.849399e-08 -19.72055 4.775368 12.55936 9.97251
